<mxfile host="app.diagrams.net" modified="2022-03-11T03:12:29.860Z" agent="5.0 (Windows NT 6.1; Win64; x64) AppleWebKit/537.36 (KHTML, like Gecko) Chrome/99.0.4844.51 Safari/537.36" etag="pTMbzAmbQXKH8ibNCHrX" version="17.1.1" type="github" pages="2">
  <diagram id="k8_fR_-tJskLXp_J3hcV" name="第 3 页">
    <mxGraphModel dx="1038" dy="548" grid="1" gridSize="10" guides="1" tooltips="1" connect="1" arrows="1" fold="1" page="1" pageScale="1" pageWidth="827" pageHeight="1169" math="0" shadow="0">
      <root>
        <mxCell id="IWpf_zu_jMIgy5gMnwXe-0" />
        <mxCell id="IWpf_zu_jMIgy5gMnwXe-1" parent="IWpf_zu_jMIgy5gMnwXe-0" />
      </root>
    </mxGraphModel>
  </diagram>
  <diagram id="iEwbYJldZ979pfe2krIr" name="第 2 页">
    <mxGraphModel dx="1038" dy="548" grid="1" gridSize="10" guides="1" tooltips="1" connect="1" arrows="1" fold="1" page="1" pageScale="1" pageWidth="827" pageHeight="1169" math="0" shadow="0">
      <root>
        <mxCell id="F6-0bT85g0z4egJq_xac-0" />
        <mxCell id="F6-0bT85g0z4egJq_xac-1" parent="F6-0bT85g0z4egJq_xac-0" />
        <mxCell id="F6-0bT85g0z4egJq_xac-2" value="" style="shape=process;whiteSpace=wrap;html=1;backgroundOutline=1;" parent="F6-0bT85g0z4egJq_xac-1" vertex="1">
          <mxGeometry x="350" y="250" width="120" height="60" as="geometry" />
        </mxCell>
        <mxCell id="F6-0bT85g0z4egJq_xac-3" value="" style="shape=cylinder3;whiteSpace=wrap;html=1;boundedLbl=1;backgroundOutline=1;size=15;" parent="F6-0bT85g0z4egJq_xac-1" vertex="1">
          <mxGeometry x="380" y="240" width="60" height="80" as="geometry" />
        </mxCell>
        <mxCell id="F6-0bT85g0z4egJq_xac-4" value="" style="ellipse;shape=cloud;whiteSpace=wrap;html=1;" parent="F6-0bT85g0z4egJq_xac-1" vertex="1">
          <mxGeometry x="350" y="240" width="120" height="80" as="geometry" />
        </mxCell>
        <mxCell id="F6-0bT85g0z4egJq_xac-5" value="" style="shape=trapezoid;perimeter=trapezoidPerimeter;whiteSpace=wrap;html=1;fixedSize=1;" parent="F6-0bT85g0z4egJq_xac-1" vertex="1">
          <mxGeometry x="350" y="250" width="120" height="60" as="geometry" />
        </mxCell>
        <mxCell id="F6-0bT85g0z4egJq_xac-6" value="" style="shape=card;whiteSpace=wrap;html=1;" parent="F6-0bT85g0z4egJq_xac-1" vertex="1">
          <mxGeometry x="370" y="230" width="80" height="100" as="geometry" />
        </mxCell>
        <mxCell id="F6-0bT85g0z4egJq_xac-7" value="" style="shape=note;whiteSpace=wrap;html=1;backgroundOutline=1;darkOpacity=0.05;" parent="F6-0bT85g0z4egJq_xac-1" vertex="1">
          <mxGeometry x="370" y="230" width="80" height="100" as="geometry" />
        </mxCell>
        <mxCell id="F6-0bT85g0z4egJq_xac-8" value="Actor" style="shape=umlActor;verticalLabelPosition=bottom;verticalAlign=top;html=1;outlineConnect=0;" parent="F6-0bT85g0z4egJq_xac-1" vertex="1">
          <mxGeometry x="400" y="250" width="30" height="60" as="geometry" />
        </mxCell>
      </root>
    </mxGraphModel>
  </diagram>
</mxfile>
